Duration: 01:48:05.14, start: 0.000000, bitrate: 1036 kb/s
Stream #0.0: Video: mpeg4, yuv420p, 672x284 [PAR 1:1 DAR 168:71], 23.98 tbr, 23.98 tbn, 23.98 tbc
Stream #0.1: Audio: ac3, 48000 Hz, stereo, s16, 128 kb/s